<svg width="170" height="43" viewBox="0 0 170 43" fill="none" xmlns="http://www.w3.org/2000/svg">
<rect width="170" height="43" fill="#8D322F"/>
<path d="M39.332 21.6367V15.8594C39.332 15.2969 39.1797 14.8359 38.875 14.4766C38.5703 14.1172 38.0977 13.9375 37.457 13.9375V13.7383H42.9531V13.9375C42.3125 13.9375 41.8438 14.1172 41.5469 14.4766C41.25 14.8281 41.1016 15.2891 41.1016 15.8594V28.9141C41.1016 30.1797 41.7188 30.8125 42.9531 30.8125V31H37.457V30.8125C38.043 30.8125 38.5 30.6562 38.8281 30.3438C39.1641 30.0234 39.332 29.5547 39.332 28.9375V22.1641H29.4414V28.9141C29.4414 29.5156 29.6094 29.9844 29.9453 30.3203C30.2891 30.6484 30.7461 30.8125 31.3164 30.8125V31H25.8203V30.8125C26.4141 30.8125 26.8672 30.6484 27.1797 30.3203C27.5 29.9844 27.6602 29.5156 27.6602 28.9141V15.8594C27.6602 14.5781 27.0469 13.9375 25.8203 13.9375V13.7383H31.3164V13.9375C30.668 13.9375 30.1914 14.1172 29.8867 14.4766C29.5898 14.8281 29.4414 15.2891 29.4414 15.8594V21.6367H39.332ZM63.4783 22.3867C63.4783 24.0039 63.0759 25.5078 62.2712 26.8984C61.4744 28.2891 60.3845 29.3984 59.0017 30.2266C57.6189 31.0469 56.0877 31.457 54.408 31.457C52.7205 31.457 51.1736 31.0469 49.7673 30.2266C48.3611 29.3984 47.2517 28.2852 46.4392 26.8867C45.6345 25.4883 45.2322 23.9648 45.2322 22.3164C45.2322 21.0508 45.4705 19.8633 45.947 18.7539C46.4314 17.6367 47.1033 16.6641 47.9627 15.8359C48.8298 15.0078 49.8142 14.3672 50.9158 13.9141C52.0252 13.4609 53.1814 13.2344 54.3845 13.2344C55.5642 13.2344 56.697 13.4531 57.783 13.8906C58.8689 14.3203 59.8416 14.9453 60.7009 15.7656C61.5681 16.5859 62.2478 17.5586 62.74 18.6836C63.2322 19.8086 63.4783 21.043 63.4783 22.3867ZM61.4158 22.4336C61.4158 20.1367 61.0095 18.3398 60.197 17.043C59.3845 15.7461 58.447 14.8789 57.3845 14.4414C56.322 13.9961 55.322 13.7734 54.3845 13.7734C53.658 13.7734 52.9041 13.8945 52.1228 14.1367C51.3416 14.3711 50.5798 14.8047 49.8377 15.4375C49.1033 16.0703 48.4978 16.9609 48.0212 18.1094C47.5447 19.2578 47.3064 20.6758 47.3064 22.3633C47.3064 23.8477 47.5017 25.1445 47.8923 26.2539C48.2908 27.3555 48.8337 28.2578 49.5212 28.9609C50.2166 29.6562 50.9783 30.1602 51.8064 30.4727C52.6423 30.7773 53.5095 30.9297 54.408 30.9297C55.2127 30.9297 56.0252 30.7891 56.8455 30.5078C57.6736 30.2188 58.4275 29.7539 59.1072 29.1133C59.7947 28.4648 60.3494 27.5898 60.7712 26.4883C61.2009 25.3789 61.4158 24.0273 61.4158 22.4336ZM84.1675 13.7383V13.9375C83.8394 13.9766 83.605 14.0117 83.4644 14.043C83.3237 14.0664 83.1675 14.1445 82.9956 14.2773C82.73 14.4805 82.562 14.6719 82.4917 14.8516C82.4292 15.0312 82.3902 15.3438 82.3745 15.7891C82.3511 15.8594 82.3511 15.9297 82.3745 16L82.9722 28.8203C82.9878 29.3594 83.1167 29.8242 83.3589 30.2148C83.6011 30.6055 84.1284 30.8047 84.9409 30.8125V31H79.3511V30.8125C80.0855 30.7344 80.5816 30.5234 80.8394 30.1797C81.0972 29.8281 81.2066 29.2852 81.1675 28.5508L80.5698 15.2852H80.523L74.4292 31L68.6636 15.8594H68.6167L67.9956 28.0938C67.9644 28.7656 68.0034 29.2891 68.1128 29.6641C68.23 30.0312 68.4136 30.2969 68.6636 30.4609C68.9136 30.6172 69.2847 30.7344 69.7769 30.8125V31H65.4292V30.8125C65.9839 30.8047 66.4058 30.6719 66.6948 30.4141C66.9839 30.1562 67.1714 29.8359 67.2573 29.4531C67.3511 29.0625 67.4214 28.5312 67.4683 27.8594L68.1597 15.2031C68.1597 15.1562 68.1128 15.0742 68.0191 14.957C67.9253 14.832 67.8081 14.7109 67.6675 14.5938C67.5347 14.4688 67.4058 14.3711 67.2808 14.3008C67.0152 14.1367 66.7847 14.043 66.5894 14.0195C66.3941 13.9883 66.1206 13.9609 65.7691 13.9375V13.7383H69.7769L75.1206 27.8594L80.5464 13.7383H84.1675ZM86.5872 13.9375V13.7383H96.8763V16.457H96.7122C96.7122 15.0039 95.7434 14.2773 93.8059 14.2773H90.2083V22.1172H93.3723C93.9973 22.1172 94.5559 22.0156 95.0481 21.8125C95.5403 21.6094 95.8216 21.1445 95.8919 20.418H96.0677V24.332H95.8919C95.8216 23.8867 95.6888 23.5469 95.4934 23.3125C95.2981 23.0703 95.1028 22.9102 94.9075 22.832C94.72 22.7539 94.552 22.7148 94.4036 22.7148C94.1223 22.668 93.8294 22.6445 93.5247 22.6445H90.2083V28.7734C90.2083 29.2344 90.2942 29.6328 90.4661 29.9688C90.6458 30.3047 91.0559 30.4727 91.6966 30.4727H94.263C94.8802 30.4727 95.388 30.3828 95.7864 30.2031C96.1848 30.0234 96.4973 29.7734 96.7239 29.4531C96.9583 29.1328 97.1536 28.7461 97.3098 28.293H97.4739L96.8763 31H86.5872V30.8125H86.8216C87.1888 30.8125 87.5481 30.6641 87.8997 30.3672C88.2513 30.0703 88.427 29.5859 88.427 28.9141V15.9062C88.427 15.375 88.3059 14.9141 88.0638 14.5234C87.8294 14.1328 87.4153 13.9375 86.8216 13.9375H86.5872ZM99.1084 13.9375V13.7383H105.753C106.683 13.7383 107.538 13.8203 108.319 13.9844C109.108 14.1406 109.812 14.3516 110.429 14.6172C111.054 14.8828 111.593 15.1758 112.046 15.4961C112.499 15.8086 112.882 16.1289 113.194 16.457C113.741 17.0039 114.206 17.6133 114.589 18.2852C114.972 18.9492 115.257 19.6523 115.444 20.3945C115.64 21.1367 115.737 21.9023 115.737 22.6914C115.737 23.4805 115.644 24.2305 115.456 24.9414C115.269 25.6523 114.999 26.3125 114.647 26.9219C114.296 27.5234 113.874 28.0703 113.382 28.5625C112.897 29.0547 112.331 29.5 111.683 29.8984C111.128 30.2266 110.491 30.4922 109.772 30.6953C109.054 30.8984 108.081 31 106.855 31H99.1084V30.8125H99.3428C99.8819 30.8125 100.284 30.6094 100.55 30.2031C100.815 29.7969 100.948 29.3672 100.948 28.9141V15.8828C100.948 15.4453 100.874 15.0781 100.726 14.7812C100.585 14.4844 100.394 14.2695 100.151 14.1367C99.9092 14.0039 99.6397 13.9375 99.3428 13.9375H99.1084ZM102.73 14.5586V28.2344C102.73 28.9062 102.835 29.4023 103.046 29.7227C103.265 30.0352 103.601 30.2383 104.054 30.332C104.507 30.4258 105.171 30.4727 106.046 30.4727C107.296 30.4727 108.351 30.3516 109.21 30.1094C110.069 29.8594 110.901 29.3086 111.706 28.457C112.3 27.8242 112.776 27.0508 113.136 26.1367C113.495 25.2227 113.675 24.1172 113.675 22.8203C113.675 21.7969 113.53 20.7852 113.241 19.7852C112.952 18.7773 112.511 17.8828 111.917 17.1016C111.253 16.2188 110.397 15.5273 109.351 15.0273C108.312 14.5273 107.058 14.2773 105.589 14.2773C104.831 14.2773 103.878 14.3711 102.73 14.5586ZM124.555 13.5273L129.723 28.3164C129.997 29.082 130.255 29.6367 130.497 29.9805C130.739 30.3242 130.97 30.543 131.188 30.6367C131.415 30.7227 131.7 30.7812 132.044 30.8125V31H126.407V30.8125C126.985 30.8125 127.43 30.7578 127.743 30.6484C128.055 30.5391 128.212 30.2422 128.212 29.7578C128.212 29.4922 128.137 29.1367 127.989 28.6914C127.958 28.6289 127.942 28.582 127.942 28.5508L126.407 23.9688H120.43L119.059 28.2109C118.872 28.7891 118.778 29.2539 118.778 29.6055C118.778 30.0898 118.899 30.4141 119.141 30.5781C119.384 30.7344 119.727 30.8125 120.173 30.8125V31H116.118V30.8125C116.696 30.7578 117.157 30.5391 117.501 30.1562C117.852 29.7656 118.157 29.1758 118.415 28.3867L123.29 13.5273H124.555ZM120.63 23.3477H126.126L123.313 15.1562H123.266L120.63 23.3477ZM142.327 17.0547H142.139C142.03 16.2188 141.663 15.4883 141.038 14.8633C140.42 14.2305 139.604 13.9141 138.588 13.9141C137.924 13.9141 137.335 14.0703 136.819 14.3828C136.303 14.6953 135.905 15.1211 135.624 15.6602C135.342 16.1992 135.202 16.8164 135.202 17.5117C135.202 18.0508 135.284 18.5312 135.448 18.9531C135.62 19.3672 135.87 19.7344 136.198 20.0547C136.526 20.375 136.913 20.6758 137.358 20.957C137.803 21.2305 138.405 21.5781 139.163 22C140.428 22.6953 141.413 23.3906 142.116 24.0859C142.819 24.7734 143.17 25.7188 143.17 26.9219C143.17 27.6562 142.979 28.3672 142.596 29.0547C142.221 29.7344 141.651 30.293 140.885 30.7305C140.12 31.168 139.17 31.3867 138.038 31.3867C137.327 31.3867 136.698 31.3086 136.151 31.1523C135.604 31.0039 135.049 30.793 134.487 30.5195C134.253 30.4414 134.092 30.4023 134.006 30.4023C133.842 30.4023 133.733 30.4609 133.678 30.5781C133.631 30.6953 133.565 30.9492 133.479 31.3398H133.28V27.0156H133.479C133.76 28.2812 134.307 29.2383 135.12 29.8867C135.932 30.5352 136.92 30.8594 138.085 30.8594C138.96 30.8594 139.659 30.6953 140.182 30.3672C140.713 30.0391 141.081 29.6406 141.284 29.1719C141.487 28.7031 141.588 28.2344 141.588 27.7656C141.588 26.7969 141.292 26.0078 140.698 25.3984C140.112 24.7812 139.217 24.1523 138.014 23.5117C137.186 23.0586 136.573 22.707 136.174 22.457C135.776 22.207 135.37 21.8828 134.956 21.4844C134.549 21.0859 134.225 20.6172 133.983 20.0781C133.741 19.5312 133.62 18.9062 133.62 18.2031C133.62 17.3906 133.835 16.6133 134.264 15.8711C134.694 15.1289 135.303 14.5352 136.092 14.0898C136.881 13.6367 137.776 13.4102 138.776 13.4102C139.534 13.4102 140.311 13.5391 141.108 13.7969C141.233 13.8594 141.401 13.8906 141.612 13.8906C141.87 13.8906 142.045 13.7148 142.139 13.3633H142.327V17.0547Z" fill="white"/>
</svg>
